<svg width="145" height="146" viewBox="0 0 145 146" fill="none" xmlns="http://www.w3.org/2000/svg">
  <path d="M45.3035 27.5822H99.6678C105.675 27.5822 111.437 29.9687 115.685 34.2167C119.933 38.4647 122.32 44.2263 122.32 50.2339V68.3554H22.6517V50.2339C22.6517 44.2263 25.0383 38.4647 29.2863 34.2167C33.5343 29.9687 39.2959 27.5822 45.3035 27.5822Z" fill="#F9BB2A" />
  <path d="M22.6518 86.4769C27.6559 86.4769 31.7125 81.4061 31.7125 75.151C31.7125 68.8958 27.6559 63.8251 22.6518 63.8251C17.6477 63.8251 13.5911 68.8958 13.5911 75.151C13.5911 81.4061 17.6477 86.4769 22.6518 86.4769Z" fill="#EDC9AD" />
  <path d="M122.32 86.4769C127.324 86.4769 131.38 81.4061 131.38 75.151C131.38 68.8958 127.324 63.8251 122.32 63.8251C117.316 63.8251 113.259 68.8958 113.259 75.151C113.259 81.4061 117.316 86.4769 122.32 86.4769Z" fill="#EDC9AD" />
  <path d="M120.055 79.5983C120.055 109.623 98.7573 134.046 72.4857 134.046C46.2142 134.046 24.917 109.623 24.917 79.5983C24.917 49.5736 46.2142 25.234 72.4857 25.234C98.7573 25.234 120.055 49.5736 120.055 79.5983Z" fill="#F3E0D1" />
  <path d="M43.0385 84.2116C46.7915 84.2116 49.834 82.1833 49.834 79.6812C49.834 77.1792 46.7915 75.1509 43.0385 75.1509C39.2854 75.1509 36.2429 77.1792 36.2429 79.6812C36.2429 82.1833 39.2854 84.2116 43.0385 84.2116Z" fill="#EDC9AD" />
  <path d="M101.933 84.2116C105.686 84.2116 108.729 82.1833 108.729 79.6812C108.729 77.1792 105.686 75.1509 101.933 75.1509C98.1799 75.1509 95.1375 77.1792 95.1375 79.6812C95.1375 82.1833 98.1799 84.2116 101.933 84.2116Z" fill="#EDC9AD" />
  <path d="M54.3642 75.066C53.4682 75.066 52.5923 74.8003 51.8473 74.3025C51.1023 73.8046 50.5216 73.0971 50.1787 72.2693C49.8358 71.4415 49.7461 70.5306 49.9209 69.6518C50.0957 68.773 50.5272 67.9657 51.1608 67.3322C51.7944 66.6986 52.6016 66.2671 53.4804 66.0923C54.3592 65.9175 55.2701 66.0072 56.0979 66.3501C56.9257 66.693 57.6333 67.2737 58.1311 68.0187C58.6289 68.7637 58.8946 69.6396 58.8946 70.5356C58.893 71.7366 58.4152 72.888 57.5659 73.7373C56.7167 74.5866 55.5653 75.0644 54.3642 75.066Z" fill="#915C39" />
  <path d="M43.0384 70.5356C42.4376 70.5356 41.8615 70.297 41.4366 69.8722C41.0118 69.4474 40.7732 68.8712 40.7732 68.2705C40.7767 65.2677 41.9711 62.389 44.0944 60.2657C46.2176 58.1425 49.0964 56.9481 52.0991 56.9446C52.6998 56.9446 53.276 57.1832 53.7008 57.608C54.1256 58.0328 54.3643 58.609 54.3643 59.2098C54.3643 59.8105 54.1256 60.3867 53.7008 60.8115C53.276 61.2363 52.6998 61.4749 52.0991 61.4749C50.2974 61.477 48.5701 62.1936 47.2962 63.4675C46.0222 64.7415 45.3056 66.4688 45.3036 68.2705C45.3036 68.8712 45.0649 69.4474 44.6401 69.8722C44.2153 70.297 43.6391 70.5356 43.0384 70.5356Z" fill="#915C39" />
  <path d="M90.607 75.066C89.711 75.066 88.8351 74.8003 88.0901 74.3025C87.3451 73.8046 86.7644 73.0971 86.4215 72.2693C86.0786 71.4415 85.9889 70.5306 86.1637 69.6518C86.3385 68.773 86.77 67.9657 87.4036 67.3322C88.0372 66.6986 88.8444 66.2671 89.7232 66.0923C90.602 65.9175 91.5129 66.0072 92.3407 66.3501C93.1685 66.693 93.8761 67.2737 94.3739 68.0187C94.8717 68.7637 95.1374 69.6396 95.1374 70.5356C95.1358 71.7366 94.658 72.888 93.8087 73.7373C92.9595 74.5866 91.8081 75.0644 90.607 75.066Z" fill="#915C39" />
  <path d="M101.933 70.6206C101.332 70.6206 100.756 70.382 100.331 69.9572C99.9065 69.5324 99.6679 68.9562 99.6679 68.3554C99.6659 66.5538 98.9493 64.8265 97.6753 63.5525C96.4013 62.2785 94.674 61.5619 92.8724 61.5599C92.2716 61.5599 91.6954 61.3212 91.2706 60.8964C90.8458 60.4716 90.6072 59.8955 90.6072 59.2947C90.6072 58.694 90.8458 58.1178 91.2706 57.693C91.6954 57.2682 92.2716 57.0295 92.8724 57.0295C95.8751 57.0331 98.7538 58.2275 100.877 60.3507C103 62.474 104.195 65.3527 104.198 68.3554C104.198 68.9562 103.96 69.5324 103.535 69.9572C103.11 70.382 102.534 70.6206 101.933 70.6206Z" fill="#915C39" />
  <path d="M74.7508 79.6813H70.2204C69.8915 79.6813 69.5666 79.6096 69.2682 79.4713C68.9698 79.3331 68.7051 79.1315 68.4925 78.8805C68.2799 78.6296 68.1244 78.3354 68.037 78.0184C67.9495 77.7013 67.9322 77.3691 67.9861 77.0446L70.2513 63.4536C70.2966 63.1571 70.4004 62.8725 70.5566 62.6165C70.7128 62.3604 70.9183 62.1379 71.1612 61.9619C71.404 61.7859 71.6794 61.6599 71.9714 61.5911C72.2634 61.5224 72.5661 61.5124 72.8619 61.5616C73.1578 61.6108 73.441 61.7182 73.695 61.8777C73.949 62.0372 74.1688 62.2456 74.3417 62.4907C74.5145 62.7358 74.637 63.0129 74.7019 63.3057C74.7668 63.5985 74.7729 63.9013 74.7199 64.1965L72.8948 75.1509H74.7508C75.3515 75.1509 75.9277 75.3896 76.3525 75.8144C76.7773 76.2392 77.016 76.8154 77.016 77.4161C77.016 78.0169 76.7773 78.593 76.3525 79.0178C75.9277 79.4426 75.3515 79.6813 74.7508 79.6813Z" fill="#915C39" />
  <path d="M104.198 27.5822C107.803 27.5822 111.26 26.1503 113.809 23.6015C116.357 21.0526 117.789 17.5957 117.789 13.9911V11.726H72.4857C54.9713 11.726 40.7732 18.825 40.7732 27.5822C40.7732 36.3394 54.9713 43.4385 72.4857 43.4385H113.259C116.86 43.4279 120.311 41.9926 122.858 39.4461C125.404 36.8995 126.839 33.4487 126.85 29.8474V27.5822H104.198Z" fill="#ECA518" />
  <path d="M72.4858 97.8027C67.0287 97.8027 63.0334 96.1922 59.534 92.5843C59.1217 92.152 58.8968 91.5742 58.9084 90.9769C58.92 90.3795 59.1671 89.8109 59.596 89.3949C60.0248 88.9789 60.6006 88.7492 61.198 88.7558C61.7955 88.7624 62.3661 89.0047 62.7857 89.43C64.7213 91.4254 67.2342 93.2723 72.4858 93.2723C77.7373 93.2723 80.2502 91.4254 82.1858 89.43C82.3922 89.2136 82.6395 89.0402 82.9133 88.9198C83.187 88.7995 83.4819 88.7345 83.781 88.7287C84.08 88.7229 84.3772 88.7764 84.6554 88.886C84.9337 88.9957 85.1875 89.1593 85.4021 89.3676C85.6168 89.5758 85.7881 89.8245 85.9061 90.0993C86.0242 90.3741 86.0867 90.6695 86.09 90.9686C86.0933 91.2676 86.0373 91.5644 85.9253 91.8417C85.8133 92.119 85.6475 92.3714 85.4375 92.5843C81.9381 96.1922 77.9429 97.8027 72.4858 97.8027Z" fill="#915C39" />
</svg>