<svg width="146" height="146" viewBox="0 0 146 146" fill="none" xmlns="http://www.w3.org/2000/svg">
  <path d="M45.8178 27.5822H100.182C106.19 27.5822 111.951 29.9687 116.199 34.2167C120.447 38.4647 122.834 44.2263 122.834 50.2339V68.3554H23.166V50.2339C23.166 44.2263 25.5525 38.4647 29.8006 34.2167C34.0486 29.9687 39.8102 27.5822 45.8178 27.5822Z" fill="#F9BB2A" />
  <path d="M23.1659 86.4769C28.17 86.4769 32.2267 81.4061 32.2267 75.151C32.2267 68.8958 28.17 63.8251 23.1659 63.8251C18.1618 63.8251 14.1052 68.8958 14.1052 75.151C14.1052 81.4061 18.1618 86.4769 23.1659 86.4769Z" fill="#EDC9AD" />
  <path d="M122.834 86.4769C127.838 86.4769 131.895 81.4061 131.895 75.151C131.895 68.8958 127.838 63.8251 122.834 63.8251C117.83 63.8251 113.773 68.8958 113.773 75.151C113.773 81.4061 117.83 86.4769 122.834 86.4769Z" fill="#EDC9AD" />
  <path d="M120.569 79.5983C120.569 109.623 99.2715 134.046 72.9999 134.046C46.7284 134.046 25.4312 109.623 25.4312 79.5983C25.4312 49.5736 46.7284 25.234 72.9999 25.234C99.2715 25.234 120.569 49.5736 120.569 79.5983Z" fill="#F3E0D1" />
  <path d="M43.5526 84.2116C47.3057 84.2116 50.3482 82.1833 50.3482 79.6812C50.3482 77.1792 47.3057 75.1509 43.5526 75.1509C39.7995 75.1509 36.7571 77.1792 36.7571 79.6812C36.7571 82.1833 39.7995 84.2116 43.5526 84.2116Z" fill="#EDC9AD" />
  <path d="M102.447 84.2116C106.2 84.2116 109.243 82.1833 109.243 79.6812C109.243 77.1792 106.2 75.1509 102.447 75.1509C98.6941 75.1509 95.6516 77.1792 95.6516 79.6812C95.6516 82.1833 98.6941 84.2116 102.447 84.2116Z" fill="#EDC9AD" />
  <path d="M54.8785 75.066C53.9825 75.066 53.1066 74.8003 52.3616 74.3025C51.6166 73.8046 51.0359 73.0971 50.693 72.2693C50.3501 71.4415 50.2604 70.5306 50.4352 69.6518C50.61 68.773 51.0415 67.9657 51.6751 67.3322C52.3086 66.6986 53.1159 66.2671 53.9947 66.0923C54.8735 65.9175 55.7844 66.0072 56.6122 66.3501C57.44 66.693 58.1476 67.2737 58.6454 68.0187C59.1432 68.7637 59.4089 69.6396 59.4089 70.5356C59.4073 71.7366 58.9295 72.888 58.0802 73.7373C57.231 74.5866 56.0796 75.0644 54.8785 75.066Z" fill="#915C39" />
  <path d="M43.5525 70.5356C42.9518 70.5356 42.3756 70.297 41.9508 69.8722C41.526 69.4474 41.2874 68.8712 41.2874 68.2705C41.2909 65.2677 42.4853 62.389 44.6085 60.2657C46.7318 58.1425 49.6105 56.9481 52.6132 56.9446C53.214 56.9446 53.7902 57.1832 54.215 57.608C54.6398 58.0328 54.8784 58.609 54.8784 59.2098C54.8784 59.8105 54.6398 60.3867 54.215 60.8115C53.7902 61.2363 53.214 61.4749 52.6132 61.4749C50.8116 61.477 49.0843 62.1936 47.8103 63.4675C46.5363 64.7415 45.8197 66.4688 45.8177 68.2705C45.8177 68.8712 45.5791 69.4474 45.1543 69.8722C44.7295 70.297 44.1533 70.5356 43.5525 70.5356Z" fill="#915C39" />
  <path d="M91.1212 75.066C90.2252 75.066 89.3493 74.8003 88.6042 74.3025C87.8592 73.8046 87.2786 73.0971 86.9357 72.2693C86.5928 71.4415 86.5031 70.5306 86.6779 69.6518C86.8527 68.773 87.2841 67.9657 87.9177 67.3322C88.5513 66.6986 89.3585 66.2671 90.2373 66.0923C91.1162 65.9175 92.0271 66.0072 92.8549 66.3501C93.6827 66.693 94.3902 67.2737 94.888 68.0187C95.3858 68.7637 95.6515 69.6396 95.6515 70.5356C95.65 71.7366 95.1722 72.888 94.3229 73.7373C93.4736 74.5866 92.3222 75.0644 91.1212 75.066Z" fill="#915C39" />
  <path d="M102.447 70.6206C101.846 70.6206 101.27 70.382 100.846 69.9572C100.421 69.5324 100.182 68.9562 100.182 68.3554C100.18 66.5538 99.4634 64.8265 98.1895 63.5525C96.9155 62.2785 95.1882 61.5619 93.3865 61.5599C92.7858 61.5599 92.2096 61.3212 91.7848 60.8964C91.36 60.4716 91.1213 59.8955 91.1213 59.2947C91.1213 58.694 91.36 58.1178 91.7848 57.693C92.2096 57.2682 92.7858 57.0295 93.3865 57.0295C96.3892 57.0331 99.268 58.2275 101.391 60.3507C103.514 62.474 104.709 65.3527 104.712 68.3554C104.712 68.9562 104.474 69.5324 104.049 69.9572C103.624 70.382 103.048 70.6206 102.447 70.6206Z" fill="#915C39" />
  <path d="M75.2651 79.6813H70.7347C70.4058 79.6813 70.0809 79.6096 69.7825 79.4713C69.4841 79.3331 69.2194 79.1315 69.0068 78.8805C68.7941 78.6296 68.6387 78.3354 68.5513 78.0184C68.4638 77.7013 68.4465 77.3691 68.5004 77.0446L70.7656 63.4536C70.8109 63.1571 70.9147 62.8725 71.0709 62.6165C71.2271 62.3604 71.4326 62.1379 71.6755 61.9619C71.9183 61.7859 72.1937 61.6599 72.4857 61.5911C72.7776 61.5224 73.0803 61.5124 73.3762 61.5616C73.6721 61.6108 73.9553 61.7182 74.2093 61.8777C74.4633 62.0372 74.6831 62.2456 74.8559 62.4907C75.0288 62.7358 75.1512 63.0129 75.2162 63.3057C75.2811 63.5985 75.2872 63.9013 75.2342 64.1965L73.409 75.1509H75.2651C75.8658 75.1509 76.442 75.3896 76.8668 75.8144C77.2916 76.2392 77.5302 76.8154 77.5302 77.4161C77.5302 78.0169 77.2916 78.593 76.8668 79.0178C76.442 79.4426 75.8658 79.6813 75.2651 79.6813Z" fill="#915C39" />
  <path d="M104.712 27.5822C108.317 27.5822 111.774 26.1503 114.323 23.6015C116.872 21.0526 118.303 17.5957 118.303 13.9911V11.726H72.9999C55.4855 11.726 41.2874 18.825 41.2874 27.5822C41.2874 36.3394 55.4855 43.4385 72.9999 43.4385H113.773C117.374 43.4279 120.825 41.9926 123.372 39.4461C125.918 36.8995 127.354 33.4487 127.364 29.8474V27.5822H104.712Z" fill="#ECA518" />
  <path d="M73.4868 101C68.0663 101 64.0978 99.4027 60.6219 95.8244C60.2123 95.3956 59.9889 94.8226 60.0004 94.2301C60.0119 93.6377 60.2574 93.0738 60.6834 92.6612C61.1094 92.2486 61.6813 92.0208 62.2747 92.0273C62.8682 92.0338 63.435 92.2741 63.8518 92.696C65.7744 94.675 68.2705 96.5068 73.4868 96.5068C78.7032 96.5068 81.1992 94.675 83.1219 92.696C83.3269 92.4813 83.5725 92.3094 83.8444 92.19C84.1164 92.0706 84.4093 92.0062 84.7063 92.0004C85.0033 91.9947 85.2985 92.0477 85.5749 92.1564C85.8513 92.2652 86.1034 92.4275 86.3166 92.634C86.5298 92.8406 86.7 93.0872 86.8173 93.3598C86.9345 93.6323 86.9966 93.9253 86.9999 94.2219C87.0031 94.5185 86.9475 94.8128 86.8363 95.0879C86.7251 95.3629 86.5604 95.6132 86.3517 95.8244C82.8758 99.4027 78.9073 101 73.4868 101Z" fill="#915C39" />
  <path d="M85 92H62L64.6136 95.5L68.7955 98L77.1591 99L82.3864 96.5L85 92Z" fill="#915C39" />
</svg>