<svg xmlns="http://www.w3.org/2000/svg" width="77" height="77" viewBox="0 0 77 77" fill="none">
                    <path fill-rule="evenodd" clip-rule="evenodd" d="M44.2236 3.1251C43.5572 3.41466 42.7862 3.32002 42.2096 2.87787L39.6958 0.950253C38.9674 0.391782 37.9525 0.400675 37.2341 0.971822L34.7553 2.94251C34.1828 3.39764 33.4076 3.50401 32.7337 3.21989L29.9565 2.04903C29.1131 1.69343 28.1358 1.95583 27.584 2.68611L25.7244 5.14682C25.2877 5.72465 24.5727 6.02125 23.8552 5.9222L20.8134 5.50226C19.9067 5.37707 19.0307 5.88346 18.6866 6.7317L17.5344 9.57215C17.2597 10.2495 16.6373 10.723 15.9113 10.8071L12.7786 11.17C11.863 11.2761 11.1385 11.9942 11.0242 12.9088L10.6334 16.0364C10.5428 16.7611 10.0644 17.3789 9.38536 17.6478L6.58147 18.7585C5.72455 19.0979 5.21056 19.979 5.33688 20.892L5.75605 23.9214C5.85471 24.6344 5.56262 25.3454 4.99123 25.7832L2.50951 27.6844C1.79004 28.2356 1.53117 29.2018 1.87865 30.0388L3.08019 32.9334C3.35455 33.5943 3.25488 34.3515 2.81879 34.9189L0.936562 37.368C0.384262 38.0866 0.384262 39.0868 0.936562 39.8054L2.81107 42.2445C3.24969 42.8152 3.3478 43.5776 3.06797 44.2408L1.86475 47.0923C1.50642 47.9415 1.77484 48.9256 2.51472 49.4753L4.97702 51.3045C5.56332 51.7401 5.86555 52.4606 5.76545 53.1841L5.33688 56.2814C5.21056 57.1944 5.72455 58.0755 6.58147 58.4149L9.41822 59.5386C10.1027 59.8097 10.5829 60.435 10.6682 61.1663L11.0209 64.1895C11.1275 65.1042 11.845 65.8278 12.7588 65.9423L15.865 66.3314C16.589 66.4221 17.2061 66.8998 17.4753 67.5779L18.6061 70.4263C18.9459 71.2822 19.8262 71.7954 20.7385 71.6695L23.8163 71.2446C24.5284 71.1463 25.2384 71.4376 25.6762 72.0078L27.5581 74.4587C28.1097 75.1771 29.0754 75.4351 29.9118 75.0875L32.7686 73.9004C33.429 73.626 34.1856 73.725 34.7531 74.1602L37.2377 76.0654C37.9565 76.6166 38.956 76.6158 39.674 76.0636L42.227 74.1C42.7976 73.6611 43.56 73.5627 44.2233 73.8424L47.0937 75.0525C47.9423 75.4103 48.9255 75.1424 49.4752 74.4035L51.3046 71.945C51.7402 71.3597 52.4599 71.058 53.1826 71.1578L56.2614 71.5828C57.1736 71.7087 58.0539 71.1955 58.3937 70.3395L59.5145 67.5165C59.7862 66.8322 60.4118 66.3525 61.1432 66.2677L64.1989 65.9137C65.1144 65.8076 65.839 65.0896 65.9532 64.175L66.3425 61.0598C66.433 60.3351 66.9115 59.7173 67.5905 59.4483L70.4184 58.3282C71.2753 57.9888 71.7893 57.1077 71.6629 56.1947L71.2413 53.1471C71.1426 52.4341 71.4347 51.7231 72.0061 51.2854L74.4661 49.4007C75.1864 48.8489 75.4449 47.8812 75.0958 47.0436L73.9022 44.1801C73.6265 43.5186 73.7258 42.7601 74.1625 42.1919L76.0618 39.7206C76.6148 39.0011 76.6141 37.9995 76.0601 37.2808L74.1036 34.7428C73.6635 34.1719 73.5647 33.4083 73.8449 32.7442L75.0513 29.8853C75.4096 29.036 75.1412 28.0519 74.4013 27.5023L71.9391 25.6731C71.3528 25.2375 71.0506 24.517 71.1507 23.7935L71.5761 20.7186C71.7025 19.8056 71.1885 18.9245 70.3316 18.585L67.5007 17.4637C66.8162 17.1926 66.336 16.5673 66.2507 15.836L65.8952 12.788C65.7885 11.8733 65.071 11.1497 64.1572 11.0352L61.0385 10.6446C60.3145 10.5539 59.6974 10.0762 59.4282 9.39806L58.3069 6.57371C57.9671 5.71779 57.0868 5.20453 56.1745 5.33047L53.115 5.75286C52.403 5.85116 51.6929 5.5598 51.2552 4.98969L49.3736 2.53924C48.8147 1.8113 47.832 1.5572 46.9903 1.92295L44.2236 3.1251Z" fill="url(#paint0_linear)" />
                    <circle opacity="0.1" cx="38" cy="39" r="31" fill="white" />
                    <defs>
                        <linearGradient id="paint0_linear" x1="75.9351" y1="0.537452" x2="-1.05786" y2="2.17485" gradientUnits="userSpaceOnUse">
                            <stop stop-color="#00A0D4" />
                            <stop offset="1" stop-color="#004F80" />
                        </linearGradient>
                    </defs>
                </svg>