<svg xmlns="http://www.w3.org/2000/svg" width="77" height="77" viewBox="0 0 77 77" fill="none">
                    <path fill-rule="evenodd" clip-rule="evenodd" d="M32.7764 3.1251C33.4428 3.41466 34.2138 3.32002 34.7904 2.87787L37.3042 0.950253C38.0326 0.391782 39.0475 0.400675 39.7659 0.971822L42.2447 2.94251C42.8171 3.39764 43.5924 3.50401 44.2663 3.21989L47.0435 2.04903C47.8869 1.69343 48.8642 1.95583 49.416 2.68611L51.2756 5.14682C51.7123 5.72465 52.4273 6.02125 53.1448 5.9222L56.1866 5.50226C57.0933 5.37707 57.9693 5.88346 58.3134 6.7317L59.4656 9.57215C59.7403 10.2495 60.3627 10.723 61.0887 10.8071L64.2214 11.17C65.137 11.2761 65.8615 11.9942 65.9758 12.9088L66.3666 16.0364C66.4572 16.7611 66.9356 17.3789 67.6146 17.6478L70.4185 18.7585C71.2755 19.0979 71.7894 19.979 71.6631 20.892L71.2439 23.9214C71.1453 24.6344 71.4374 25.3454 72.0088 25.7832L74.4905 27.6844C75.21 28.2356 75.4688 29.2018 75.1213 30.0388L73.9198 32.9334C73.6454 33.5943 73.7451 34.3515 74.1812 34.9189L76.0634 37.368C76.6157 38.0866 76.6157 39.0868 76.0634 39.8054L74.1889 42.2445C73.7503 42.8152 73.6522 43.5776 73.932 44.2408L75.1353 47.0923C75.4936 47.9415 75.2252 48.9256 74.4853 49.4753L72.023 51.3045C71.4367 51.7401 71.1344 52.4606 71.2346 53.1841L71.6631 56.2814C71.7894 57.1944 71.2755 58.0755 70.4185 58.4149L67.5818 59.5386C66.8973 59.8097 66.4171 60.435 66.3318 61.1663L65.9791 64.1895C65.8725 65.1042 65.155 65.8278 64.2412 65.9423L61.135 66.3314C60.411 66.4221 59.7939 66.8998 59.5247 67.5779L58.3939 70.4263C58.0541 71.2822 57.1738 71.7954 56.2615 71.6695L53.1837 71.2446C52.4716 71.1463 51.7616 71.4376 51.3238 72.0078L49.4419 74.4587C48.8903 75.1771 47.9246 75.4351 47.0882 75.0875L44.2314 73.9004C43.571 73.626 42.8144 73.725 42.2469 74.1602L39.7623 76.0654C39.0435 76.6166 38.044 76.6158 37.326 76.0636L34.773 74.1C34.2024 73.6611 33.44 73.5627 32.7767 73.8424L29.9063 75.0525C29.0577 75.4103 28.0745 75.1424 27.5248 74.4035L25.6954 71.945C25.2598 71.3597 24.5401 71.058 23.8174 71.1578L20.7386 71.5828C19.8264 71.7087 18.9461 71.1955 18.6063 70.3395L17.4855 67.5165C17.2138 66.8322 16.5882 66.3525 15.8568 66.2677L12.8011 65.9137C11.8856 65.8076 11.161 65.0896 11.0468 64.175L10.6575 61.0598C10.567 60.3351 10.0885 59.7173 9.40948 59.4483L6.58164 58.3282C5.72471 57.9888 5.21072 57.1077 5.33705 56.1947L5.75873 53.1471C5.85739 52.4341 5.5653 51.7231 4.99392 51.2854L2.53393 49.4007C1.81359 48.8489 1.55507 47.8812 1.90419 47.0436L3.09776 44.1801C3.37349 43.5186 3.2742 42.7601 2.83748 42.1919L0.93815 39.7206C0.385189 39.0011 0.38592 37.9995 0.939931 37.2808L2.8964 34.7428C3.33649 34.1719 3.43532 33.4083 3.15508 32.7442L1.94873 29.8853C1.59039 29.036 1.85882 28.0519 2.5987 27.5023L5.0609 25.6731C5.64719 25.2375 5.94943 24.517 5.84933 23.7935L5.42386 20.7186C5.29753 19.8056 5.81152 18.9245 6.66845 18.585L9.49931 17.4637C10.1838 17.1926 10.664 16.5673 10.7493 15.836L11.1048 12.788C11.2115 11.8733 11.929 11.1497 12.8428 11.0352L15.9615 10.6446C16.6855 10.5539 17.3026 10.0762 17.5718 9.39806L18.6931 6.57371C19.0329 5.71779 19.9132 5.20453 20.8255 5.33047L23.885 5.75286C24.597 5.85116 25.3071 5.5598 25.7448 4.98969L27.6264 2.53924C28.1853 1.8113 29.168 1.5572 30.0097 1.92295L32.7764 3.1251Z" fill="#D5E1EF" />
                    <path d="M40.6412 48.3768C40.6412 49.2728 39.9059 50 39 50C38.0941 50 37.3589 49.2728 37.3589 48.3768V48.2329C37.3589 47.3358 38.0941 46.6097 39 46.6097C39.9059 46.6097 40.6412 47.3358 40.6412 48.2329V48.3768ZM40.8654 40.5759C40.7309 40.6192 40.6412 40.735 40.6412 40.8627V42.2997C40.6412 43.1968 39.9059 43.9229 39 43.9229C38.0941 43.9229 37.3589 43.1968 37.3589 42.2997V40.8627C37.3589 39.3347 38.3513 37.9734 39.8458 37.4897C41.0295 37.1067 41.7965 35.9759 41.7112 34.7401C41.6182 33.4145 40.5372 32.3454 39.1959 32.2534C37.5952 32.1419 36.2824 33.395 36.2824 34.9349C36.2824 35.8298 35.5504 36.558 34.6412 36.558C33.7353 36.558 33.0001 35.8308 33.0001 34.9349C33.0001 31.5738 35.8644 28.7722 39.4223 29.0146C42.3895 29.217 44.7811 31.5825 44.9857 34.5172C45.175 37.2387 43.4814 39.7297 40.8654 40.5759Z" fill="#C1CDDB" />
                </svg>