<svg width="34" height="34" viewBox="0 0 34 34" fill="none" xmlns="http://www.w3.org/2000/svg">
                        <g clip-path="url(#clip0)">
                            <path d="M15.082 25.4987H12.0069C10.8788 25.4987 9.96436 26.4131 9.96436 27.5412V29.8156H24.0362V27.5412C24.0362 26.4131 23.1217 25.4987 21.9937 25.4987H18.9186H15.082Z" fill="#F9AC30" />
                            <path d="M32.6158 4.66375C31.5588 3.00732 29.706 2.09583 27.3999 2.09583H27.34H6.66051H6.60061C4.2938 2.09583 2.44173 3.00725 1.38474 4.66375C0.242825 6.4532 0.213607 8.82682 1.30466 11.1775C3.30992 15.4958 9.6357 16.9357 9.90445 16.9949L10.52 17.1307H10.5206H23.4792H23.4799L24.096 16.9949C24.3641 16.9357 30.6906 15.4958 32.6952 11.1775C33.7863 8.82682 33.7571 6.4532 32.6158 4.66375ZM30.8006 10.2974C29.9971 12.0277 28.1192 13.1974 26.6849 13.8735C26.0931 14.1527 25.5297 14.3713 25.0528 14.537L8.9478 14.5377H8.94714C8.46948 14.3713 7.90622 14.1527 7.31508 13.8734C5.88143 13.1973 4.00287 12.0276 3.19936 10.2973C2.41464 8.60741 2.39518 6.96353 3.14577 5.78748C3.80518 4.75347 5.0327 4.18463 6.60075 4.18463H6.6627H27.3381H27.4001C28.9681 4.18463 30.195 4.75347 30.855 5.78748C31.6048 6.96359 31.5853 8.60748 30.8006 10.2974Z" fill="#DD8D19" />
                            <path d="M18.4626 25.4986L18.4594 23.4711C18.4572 22.0128 19.2133 20.6481 20.4705 19.9093C24.4739 17.5565 27.3398 11.2491 27.3398 3.83635V0H6.6604V3.83622C6.6604 11.2491 9.52642 17.5567 13.53 19.9093C14.7871 20.6481 15.5432 22.0127 15.541 23.4708L15.538 25.4986L17.2091 27.2286L18.4626 25.4986Z" fill="#F9AC30" />
                            <path d="M16.3018 23.471L16.3004 25.4986H15.538L15.5408 23.471C15.5428 22.013 14.7867 20.6483 13.5299 19.9096C9.52629 17.5568 6.6604 11.2492 6.6604 3.83655V0H12.0524V3.83655C12.0524 11.2492 13.4241 17.5568 15.3396 19.9096C15.9411 20.6483 16.3032 22.013 16.3018 23.471Z" fill="#DD8D19" />
                            <path d="M16.4631 25.4987H15.0821H12.0069C10.8788 25.4987 9.96436 26.4131 9.96436 27.5412V29.8156H14.4205V27.5412C14.4205 26.4131 15.335 25.4987 16.4631 25.4987Z" fill="#DD8D19" />
                            <path d="M14.5504 28.7015H9.17516C8.53421 28.7015 8.01465 29.2211 8.01465 29.8621V34.0001H25.9857V29.8621C25.9857 29.2211 25.4662 28.7015 24.8252 28.7015H19.45" fill="#4F5B5E" />
                            <path d="M10.5677 28.7015H9.17516C8.53421 28.7015 8.01465 29.2211 8.01465 29.8621V34.0001H9.40718V29.8621C9.40732 29.2211 9.92681 28.7015 10.5677 28.7015Z" fill="#3B4547" />
                        </g>
                        <defs>
                            <clipPath id="clip0">
                                <rect width="34" height="34" fill="white" />
                            </clipPath>
                        </defs>
                    </svg>