<svg xmlns="http://www.w3.org/2000/svg" width="210" height="165" viewBox="0 0 210 165" fill="none">
                <path d="M23.3104 135.103C3.42379 113.92 -5.32803 80.3137 3.33713 53.9977C12.0023 27.6385 38.1278 8.52708 62.6069 3.47958C87.086 -1.61106 109.962 7.31913 136.911 16.8101C163.859 26.3012 194.837 36.3099 205.539 58.096C216.284 79.8822 206.709 113.403 186.562 134.671C166.459 155.94 135.741 164.913 104.893 164.999C74.0883 165.086 43.1536 156.285 23.3104 135.103Z" fill="#EFF4F9" />
                <mask id="mask0" mask-type="alpha" maskUnits="userSpaceOnUse" x="0" y="2" width="210" height="163">
                    <path d="M23.3104 135.103C3.42379 113.92 -5.32803 80.3137 3.33713 53.9977C12.0023 27.6385 38.1278 8.52708 62.6069 3.47958C87.086 -1.61106 109.962 7.31913 136.911 16.8101C163.859 26.3012 194.837 36.3099 205.539 58.096C216.284 79.8822 206.709 113.403 186.562 134.671C166.459 155.94 135.741 164.913 104.893 164.999C74.0883 165.086 43.1536 156.285 23.3104 135.103Z" fill="#EFF4F9" />
                </mask>
                <g mask="url(#mask0)">
                    <path d="M148.167 105.625L125.82 100.07L123.918 92.5095C129.897 86.6247 133.992 78.5422 135.206 70.251C138.519 69.3234 141.086 66.4996 141.529 62.9572L142.987 51.3612C143.296 48.9143 142.538 46.4387 140.905 44.5832C139.948 43.4931 138.74 42.6699 137.405 42.1655L137.941 31.2478L140.123 29.0735C143.407 25.6005 146.131 19.646 140.438 11.007C136.063 4.36872 128.632 1 118.342 1C114.282 1 104.937 1 96.2334 6.80958C71.3832 7.32569 67.9999 18.7997 67.9999 29.99C67.9999 32.5934 68.6357 38.4551 69.0557 41.9918C67.5564 42.4614 66.1974 43.3311 65.1357 44.5313C63.4732 46.4042 62.7032 48.8915 63.0124 51.3671L64.4707 62.9632C64.9489 66.7434 67.8364 69.7177 71.4882 70.4252C72.6957 78.3973 76.5807 86.2189 82.2156 92.0054L80.1857 100.082L57.8382 105.636C43.2082 109.26 33 147.107 33 162.101C33 163.701 34.3068 165 35.9168 165H170.083C171.693 165 173 163.69 173 162.09C173 147.107 162.792 109.26 148.167 105.625Z" fill="#D5E1EF" />
                </g>
                <path d="M123.918 91.5095L125.82 99.0702L80.1857 99.0819L82.2157 91.0054C76.5807 85.2189 72.6957 77.3973 71.4882 69.4252C67.8364 68.7177 64.9489 65.7434 64.4707 61.9632L63.0125 50.3671C62.7032 47.8915 63.4732 45.4042 65.1357 43.5313C66.1975 42.3311 67.5564 41.4614 69.0557 40.9918C68.6357 37.4551 67.9999 31.5934 67.9999 28.99C67.9999 17.7997 71.3832 6.32569 96.2334 5.80958C104.937 0 114.282 0 118.342 0C128.632 0 136.063 3.36872 140.438 10.007C146.131 18.646 143.407 24.6005 140.123 28.0735L137.941 30.2478L137.405 41.1655C138.74 41.6699 139.948 42.4931 140.905 43.5832C142.538 45.4387 143.296 47.9143 142.987 50.3612L141.529 61.9572C141.086 65.4996 138.519 68.3234 135.206 69.251C133.992 77.5422 129.897 85.6247 123.918 91.5095Z" fill="#D5E1EF" />
                <path d="M97 126H109M103 120V132" stroke="#B7C3D1" stroke-width="2" />
            </svg>