<svg xmlns="http://www.w3.org/2000/svg" width="119" height="77" viewBox="0 0 119 77" fill="none">
                    <path fill-rule="evenodd" clip-rule="evenodd" d="M107.643 1L19.2116 2.73491C15.609 3.01756 14.0913 4.60303 12.3487 8.52806C11.2426 11.0196 3.83618 39.3041 1.44297 48.9202C-0.152504 55.331 2.56193 58.5364 9.58627 58.5364H22.6285L21.2116 74.4486L48.976 58.5364L110.221 56.5578C115.297 56.3538 116.422 54.0242 117 50.5758L111.603 5.24653C111.788 2.81842 110.376 1.14693 107.643 1Z" fill="#1498CC" />
                    <path fill-rule="evenodd" clip-rule="evenodd" d="M13.1648 3.74809L105.488 5.14846C108.172 5.45115 109.028 6.53384 109.514 9.0169C110 11.5 112.5 26 116 53.5L115.5 30.5L113 6.92484L112.407 3.74809L110.595 1.63048L107.866 1.58643L13.1648 3.74809Z" fill="#0070A4" />
                    <path fill-rule="evenodd" clip-rule="evenodd" d="M107 1L19.2116 2.73491C15.609 3.01756 14.0913 4.60303 12.3487 8.52806C11.2426 11.0196 3.83618 39.3041 1.44297 48.9202C-0.152502 55.331 2.56193 58.5364 9.58627 58.5364H22.6285L21.2116 74.819L48.976 58.5364L110.221 56.5578C115.297 56.3538 116.422 54.0242 117 50.5758L112.603 5.24654C112 3 110.5 1 107 1Z" stroke="#203568" stroke-width="2" stroke-linecap="round" />
</svg>