<svg xmlns="http://www.w3.org/2000/svg" width="116" height="81" viewBox="0 0 116 81" fill="none">
<path fill-rule="evenodd" clip-rule="evenodd" d="M5.35669 1L96.7884 2.73491C100.391 3.01756 101.909 4.60303 103.651 8.52806C104.757 11.0196 112.164 39.3041 114.557 48.9202C116.153 55.331 113.438 58.5364 106.414 58.5364H93.3715L96.7884 78.4486L63.024 58.5364L7.77867 56.5578C2.70325 56.3538 1.57773 54.0242 1 50.5758L1.39742 5.24653C1.2115 2.81842 2.62401 1.14693 5.35669 1Z" fill="#38CAB0"/>
<path fill-rule="evenodd" clip-rule="evenodd" d="M94.8352 3.74809L8.51161 5.14846C5.8278 5.45115 4.48589 6.74063 4.48589 9.0169C4.48589 11.2932 3.32393 26.3977 1 54.3306V6.92484L1.59342 3.74809L3.40527 1.63048L6.1342 1.58643L94.8352 3.74809Z" fill="#229F88"/>
<path fill-rule="evenodd" clip-rule="evenodd" d="M5.35669 1L96.7884 2.73491C100.391 3.01756 101.909 4.60303 103.651 8.52806C104.757 11.0196 112.164 39.3041 114.557 48.9202C116.153 55.331 113.438 58.5364 106.414 58.5364H93.3715L96.7884 78.819L63.024 58.5364L7.77867 56.5578C2.70325 56.3538 1.57773 54.0242 1 50.5758L1.39742 5.24654C1.2115 2.81842 2.62401 1.14693 5.35669 1Z" stroke="#203568" stroke-width="2" stroke-linecap="round"/>
</svg>