<svg class="file-reader__icon" width="24" height="24" viewBox="0 0 24 24" fill="none" xmlns="http://www.w3.org/2000/svg">
            <path fill-rule="evenodd" clip-rule="evenodd" d="M13.1799 11.9554H15.2564C16.1421 11.9554 16.8624 12.6757 16.8624 13.5614V22.394C16.8624 23.2797 16.1421 24 15.2564 24H2.40892C1.52324 24 0.802979 23.2797 0.802979 22.394V13.5614C0.802979 12.6757 1.52324 11.9554 2.40892 11.9554H4.48539L6.65903 9.78178C6.73347 9.70707 6.82195 9.64782 6.91938 9.60744C7.01681 9.56707 7.12127 9.54636 7.22673 9.54651H10.4386C10.5441 9.54636 10.6485 9.56707 10.746 9.60744C10.8434 9.64782 10.9319 9.70707 11.0063 9.78178L13.1799 11.9554ZM4.81782 17.5762C4.81782 19.7522 6.65662 21.591 8.83267 21.591C11.0087 21.591 12.8475 19.7522 12.8475 17.5762C12.8475 15.4002 11.0087 13.5614 8.83267 13.5614C6.65662 13.5614 4.81782 15.4002 4.81782 17.5762ZM6.42361 17.5762C6.42361 16.2706 7.52689 15.1673 8.83252 15.1673C10.1381 15.1673 11.2414 16.2706 11.2414 17.5762C11.2414 18.8818 10.1381 19.9851 8.83252 19.9851C7.52689 19.9851 6.42361 18.8818 6.42361 17.5762Z" fill="#0084B8" />
            <path d="M22.7715 10.9214H20.3276V13.3652H19.0454V10.9214H16.5889V9.63281H19.0454V7.17627H20.3276V9.63281H22.7715V10.9214Z" fill="#0084B8" />
        </svg>